<mxfile host="Electron" modified="2024-05-26T05:10:24.307Z" agent="Mozilla/5.0 (Windows NT 10.0; Win64; x64) AppleWebKit/537.36 (KHTML, like Gecko) draw.io/22.1.11 Chrome/114.0.5735.289 Electron/25.9.8 Safari/537.36" etag="a2YM_VKWMDDRFsfZTfNW" version="22.1.11" type="device">
  <diagram name="Page-1" id="-4CRI_s8Adh2Hmm_deZ9">
    <mxGraphModel dx="1793" dy="1134" grid="0" gridSize="10" guides="1" tooltips="1" connect="1" arrows="1" fold="1" page="1" pageScale="1" pageWidth="1100" pageHeight="850" math="0" shadow="0">
      <root>
        <mxCell id="0" />
        <mxCell id="1" parent="0" />
        <mxCell id="ahXjinsiZgF_IZb5yBNB-3" value="" style="rounded=0;whiteSpace=wrap;html=1;strokeColor=#d6b656;fillColor=#fff2cc;dashed=1;movable=0;resizable=0;rotatable=0;deletable=0;editable=0;locked=1;connectable=0;" parent="1" vertex="1">
          <mxGeometry x="559" y="14" width="529" height="816" as="geometry" />
        </mxCell>
        <mxCell id="0iRHrdmA9X0q9H5ds0Qy-21" value="" style="rounded=1;whiteSpace=wrap;html=1;dashed=1;strokeColor=default;fillColor=default;fillStyle=hatch;sketch=1;curveFitting=1;jiggle=2;" vertex="1" parent="1">
          <mxGeometry x="587" y="99" width="473" height="700" as="geometry" />
        </mxCell>
        <mxCell id="ahXjinsiZgF_IZb5yBNB-1" value="" style="rounded=0;whiteSpace=wrap;html=1;strokeColor=#6c8ebf;fillColor=#dae8fc;dashed=1;movable=0;resizable=0;rotatable=0;deletable=0;editable=0;locked=1;connectable=0;" parent="1" vertex="1">
          <mxGeometry x="18" y="14" width="529" height="816" as="geometry" />
        </mxCell>
        <mxCell id="0iRHrdmA9X0q9H5ds0Qy-14" value="Users" style="rounded=0;whiteSpace=wrap;html=1;glass=1;shadow=1;sketch=1;curveFitting=1;jiggle=2;" vertex="1" parent="1">
          <mxGeometry x="101.5" y="593" width="329" height="142" as="geometry" />
        </mxCell>
        <mxCell id="ahXjinsiZgF_IZb5yBNB-4" value="&lt;b&gt;&lt;font style=&quot;font-size: 22px;&quot;&gt;Frontend&lt;/font&gt;&lt;/b&gt;" style="text;html=1;strokeColor=none;fillColor=none;align=center;verticalAlign=middle;whiteSpace=wrap;rounded=0;" parent="1" vertex="1">
          <mxGeometry x="165" y="54" width="202" height="30" as="geometry" />
        </mxCell>
        <mxCell id="ahXjinsiZgF_IZb5yBNB-5" value="&lt;b&gt;&lt;font style=&quot;font-size: 22px;&quot;&gt;Backend&lt;/font&gt;&lt;/b&gt;" style="text;html=1;strokeColor=none;fillColor=none;align=center;verticalAlign=middle;whiteSpace=wrap;rounded=0;" parent="1" vertex="1">
          <mxGeometry x="735" y="54" width="202" height="30" as="geometry" />
        </mxCell>
        <mxCell id="ahXjinsiZgF_IZb5yBNB-11" value="" style="rounded=1;whiteSpace=wrap;html=1;sketch=1;curveFitting=1;jiggle=2;" parent="1" vertex="1">
          <mxGeometry x="682" y="491.05" width="327" height="209" as="geometry" />
        </mxCell>
        <mxCell id="ahXjinsiZgF_IZb5yBNB-8" value="Mysql" style="shape=cylinder3;whiteSpace=wrap;html=1;boundedLbl=1;backgroundOutline=1;size=15;shadow=1;sketch=1;curveFitting=1;jiggle=2;" parent="1" vertex="1">
          <mxGeometry x="897" y="539.05" width="86" height="121" as="geometry" />
        </mxCell>
        <mxCell id="ahXjinsiZgF_IZb5yBNB-10" value="&lt;h1 style=&quot;&quot;&gt;&lt;span style=&quot;white-space: pre;&quot;&gt;&#x9;&lt;/span&gt;Databas&lt;/h1&gt;&lt;div style=&quot;&quot;&gt;&lt;ul&gt;&lt;li&gt;&lt;span style=&quot;background-color: initial;&quot;&gt;Oracle&lt;/span&gt;&lt;/li&gt;&lt;li&gt;&lt;span style=&quot;background-color: initial;&quot;&gt;MySQL&lt;/span&gt;&lt;/li&gt;&lt;li&gt;&lt;span style=&quot;background-color: initial;&quot;&gt;Microsoft SQL Server&lt;/span&gt;&lt;/li&gt;&lt;li&gt;&lt;span style=&quot;background-color: initial;&quot;&gt;PostgreSQL&lt;/span&gt;&lt;/li&gt;&lt;li&gt;&lt;span style=&quot;background-color: initial;&quot;&gt;MongoDB&lt;/span&gt;&lt;/li&gt;&lt;li&gt;&lt;span style=&quot;background-color: initial;&quot;&gt;Redis&lt;/span&gt;&lt;/li&gt;&lt;/ul&gt;&lt;/div&gt;" style="text;html=1;strokeColor=none;fillColor=none;spacing=5;spacingTop=-20;whiteSpace=wrap;overflow=hidden;rounded=0;" parent="1" vertex="1">
          <mxGeometry x="689" y="542.05" width="191" height="140" as="geometry" />
        </mxCell>
        <mxCell id="0iRHrdmA9X0q9H5ds0Qy-9" style="edgeStyle=orthogonalEdgeStyle;rounded=0;orthogonalLoop=1;jettySize=auto;html=1;entryX=1;entryY=0.5;entryDx=0;entryDy=0;" edge="1" parent="1" source="ahXjinsiZgF_IZb5yBNB-12" target="0iRHrdmA9X0q9H5ds0Qy-6">
          <mxGeometry relative="1" as="geometry">
            <Array as="points">
              <mxPoint x="782" y="290.05" />
            </Array>
          </mxGeometry>
        </mxCell>
        <mxCell id="0iRHrdmA9X0q9H5ds0Qy-18" value="Method" style="edgeLabel;html=1;align=center;verticalAlign=middle;resizable=0;points=[];" vertex="1" connectable="0" parent="0iRHrdmA9X0q9H5ds0Qy-9">
          <mxGeometry x="0.0642" y="-1" relative="1" as="geometry">
            <mxPoint as="offset" />
          </mxGeometry>
        </mxCell>
        <mxCell id="ahXjinsiZgF_IZb5yBNB-12" value="Express js" style="rounded=1;whiteSpace=wrap;html=1;align=center;sketch=1;curveFitting=1;jiggle=2;" parent="1" vertex="1">
          <mxGeometry x="811" y="192.05" width="205" height="120" as="geometry" />
        </mxCell>
        <mxCell id="ahXjinsiZgF_IZb5yBNB-17" style="edgeStyle=orthogonalEdgeStyle;rounded=0;orthogonalLoop=1;jettySize=auto;html=1;entryX=0.5;entryY=0;entryDx=0;entryDy=0;" parent="1" source="ahXjinsiZgF_IZb5yBNB-13" target="ahXjinsiZgF_IZb5yBNB-12" edge="1">
          <mxGeometry relative="1" as="geometry">
            <Array as="points">
              <mxPoint x="914" y="151.05" />
            </Array>
          </mxGeometry>
        </mxCell>
        <mxCell id="0iRHrdmA9X0q9H5ds0Qy-16" value="Request&amp;nbsp;" style="edgeLabel;html=1;align=center;verticalAlign=middle;resizable=0;points=[];" vertex="1" connectable="0" parent="ahXjinsiZgF_IZb5yBNB-17">
          <mxGeometry x="0.1051" y="1" relative="1" as="geometry">
            <mxPoint as="offset" />
          </mxGeometry>
        </mxCell>
        <mxCell id="0iRHrdmA9X0q9H5ds0Qy-1" value="&lt;div style=&quot;text-align: justify;&quot;&gt;&lt;span style=&quot;background-color: initial;&quot;&gt;&lt;b&gt;&lt;font color=&quot;#0066cc&quot; style=&quot;font-size: 24px;&quot;&gt;Vercel&lt;/font&gt;&lt;/b&gt;&lt;/span&gt;&lt;/div&gt;" style="rounded=1;whiteSpace=wrap;html=1;align=center;shadow=1;sketch=1;curveFitting=1;jiggle=2;glass=1;" vertex="1" parent="1">
          <mxGeometry x="118" y="207" width="371" height="326.05" as="geometry" />
        </mxCell>
        <mxCell id="ahXjinsiZgF_IZb5yBNB-13" value="&lt;div style=&quot;text-align: justify;&quot;&gt;&lt;span style=&quot;background-color: initial;&quot;&gt;&lt;b&gt;&lt;font style=&quot;font-size: 20px;&quot;&gt;Next.js Customer&amp;nbsp;&lt;/font&gt;&lt;/b&gt;&lt;/span&gt;&lt;/div&gt;" style="rounded=1;whiteSpace=wrap;html=1;align=center;sketch=1;curveFitting=1;jiggle=2;" parent="1" vertex="1">
          <mxGeometry x="152" y="237" width="293" height="79" as="geometry" />
        </mxCell>
        <mxCell id="ahXjinsiZgF_IZb5yBNB-20" value="Customers" style="shape=umlActor;verticalLabelPosition=bottom;verticalAlign=top;html=1;outlineConnect=0;" parent="1" vertex="1">
          <mxGeometry x="178" y="643.05" width="30" height="60" as="geometry" />
        </mxCell>
        <mxCell id="ahXjinsiZgF_IZb5yBNB-22" value="&lt;div style=&quot;text-align: justify;&quot;&gt;&lt;span style=&quot;background-color: initial;&quot;&gt;&lt;b&gt;&lt;font style=&quot;font-size: 20px;&quot;&gt;Nexr.js Customer&amp;nbsp;&lt;/font&gt;&lt;/b&gt;&lt;/span&gt;&lt;/div&gt;" style="rounded=1;whiteSpace=wrap;html=1;align=center;sketch=1;curveFitting=1;jiggle=2;" parent="1" vertex="1">
          <mxGeometry x="159" y="428.05" width="310" height="71" as="geometry" />
        </mxCell>
        <mxCell id="0iRHrdmA9X0q9H5ds0Qy-6" value="" style="triangle;whiteSpace=wrap;html=1;rotation=-90;rounded=1;shadow=1;sketch=1;curveFitting=1;jiggle=2;" vertex="1" parent="1">
          <mxGeometry x="744" y="360.55" width="75" height="80" as="geometry" />
        </mxCell>
        <mxCell id="0iRHrdmA9X0q9H5ds0Qy-8" value="&lt;br style=&quot;border-color: var(--border-color);&quot;&gt;Prisma" style="text;html=1;strokeColor=none;fillColor=none;align=center;verticalAlign=middle;whiteSpace=wrap;rounded=0;" vertex="1" parent="1">
          <mxGeometry x="751.5" y="398.05" width="60" height="30" as="geometry" />
        </mxCell>
        <mxCell id="0iRHrdmA9X0q9H5ds0Qy-10" style="edgeStyle=orthogonalEdgeStyle;rounded=0;orthogonalLoop=1;jettySize=auto;html=1;entryX=0.037;entryY=0.014;entryDx=0;entryDy=0;entryPerimeter=0;" edge="1" parent="1" source="0iRHrdmA9X0q9H5ds0Qy-6" target="ahXjinsiZgF_IZb5yBNB-11">
          <mxGeometry relative="1" as="geometry" />
        </mxCell>
        <mxCell id="0iRHrdmA9X0q9H5ds0Qy-19" value="Query" style="edgeLabel;html=1;align=center;verticalAlign=middle;resizable=0;points=[];" vertex="1" connectable="0" parent="0iRHrdmA9X0q9H5ds0Qy-10">
          <mxGeometry x="-0.1925" y="2" relative="1" as="geometry">
            <mxPoint as="offset" />
          </mxGeometry>
        </mxCell>
        <mxCell id="0iRHrdmA9X0q9H5ds0Qy-11" style="edgeStyle=orthogonalEdgeStyle;rounded=0;orthogonalLoop=1;jettySize=auto;html=1;entryX=0.834;entryY=1;entryDx=0;entryDy=0;entryPerimeter=0;exitX=0.011;exitY=1.003;exitDx=0;exitDy=0;exitPerimeter=0;" edge="1" parent="1" source="0iRHrdmA9X0q9H5ds0Qy-6" target="ahXjinsiZgF_IZb5yBNB-12">
          <mxGeometry relative="1" as="geometry">
            <Array as="points">
              <mxPoint x="822" y="433.05" />
              <mxPoint x="982" y="433.05" />
            </Array>
          </mxGeometry>
        </mxCell>
        <mxCell id="0iRHrdmA9X0q9H5ds0Qy-20" value="Result" style="edgeLabel;html=1;align=center;verticalAlign=middle;resizable=0;points=[];" vertex="1" connectable="0" parent="0iRHrdmA9X0q9H5ds0Qy-11">
          <mxGeometry x="-0.0199" relative="1" as="geometry">
            <mxPoint as="offset" />
          </mxGeometry>
        </mxCell>
        <mxCell id="0iRHrdmA9X0q9H5ds0Qy-12" style="edgeStyle=orthogonalEdgeStyle;rounded=0;orthogonalLoop=1;jettySize=auto;html=1;" edge="1" parent="1" source="ahXjinsiZgF_IZb5yBNB-12" target="0iRHrdmA9X0q9H5ds0Qy-1">
          <mxGeometry relative="1" as="geometry">
            <Array as="points">
              <mxPoint x="590" y="252" />
              <mxPoint x="590" y="252" />
            </Array>
          </mxGeometry>
        </mxCell>
        <mxCell id="0iRHrdmA9X0q9H5ds0Qy-17" value="Respond&amp;nbsp;" style="edgeLabel;html=1;align=center;verticalAlign=middle;resizable=0;points=[];" vertex="1" connectable="0" parent="0iRHrdmA9X0q9H5ds0Qy-12">
          <mxGeometry x="-0.0001" y="4" relative="1" as="geometry">
            <mxPoint as="offset" />
          </mxGeometry>
        </mxCell>
        <mxCell id="0iRHrdmA9X0q9H5ds0Qy-13" value="Employees&amp;nbsp;" style="shape=umlActor;verticalLabelPosition=bottom;verticalAlign=top;html=1;outlineConnect=0;" vertex="1" parent="1">
          <mxGeometry x="359" y="643.05" width="30" height="60" as="geometry" />
        </mxCell>
        <mxCell id="0iRHrdmA9X0q9H5ds0Qy-15" style="edgeStyle=orthogonalEdgeStyle;rounded=0;orthogonalLoop=1;jettySize=auto;html=1;entryX=0.401;entryY=1.015;entryDx=0;entryDy=0;entryPerimeter=0;" edge="1" parent="1" source="0iRHrdmA9X0q9H5ds0Qy-14" target="0iRHrdmA9X0q9H5ds0Qy-1">
          <mxGeometry relative="1" as="geometry" />
        </mxCell>
        <mxCell id="0iRHrdmA9X0q9H5ds0Qy-22" value="&lt;font color=&quot;#ff9933&quot; style=&quot;font-size: 26px;&quot;&gt;&lt;b style=&quot;&quot;&gt;AWS EC2&lt;/b&gt;&lt;/font&gt;" style="text;html=1;strokeColor=none;fillColor=none;align=center;verticalAlign=middle;whiteSpace=wrap;rounded=0;" vertex="1" parent="1">
          <mxGeometry x="593" y="378" width="167" height="69" as="geometry" />
        </mxCell>
      </root>
    </mxGraphModel>
  </diagram>
</mxfile>
